<?xml version="1.0" encoding="utf-8"?>

<!-- License Agreement at http://iconmonstr.com/license/ -->

<!DOCTYPE svg PUBLIC "-//W3C//DTD SVG 1.1//EN" "http://www.w3.org/Graphics/SVG/1.1/DTD/svg11.dtd">
<svg version="1.1" xmlns="http://www.w3.org/2000/svg" xmlns:xlink="http://www.w3.org/1999/xlink" x="0px" y="0px"
	 width="512px" height="512px" viewBox="0 0 512 512" style="enable-background:new 0 0 512 512;" xml:space="preserve">
<path id="id-card-icon" d="M256.868,316.465c-34.166-7.885-65.97-14.783-50.569-43.82
	c46.886-88.391,12.428-135.662-37.078-135.662c-50.484,0-84.091,49.085-37.081,135.662c15.864,29.213-17.134,36.105-50.568,43.82
	c-34.151,7.875-31.524,25.879-31.524,58.553h238.347C288.394,342.344,291.019,324.34,256.868,316.465z M462,141.051H300.943v48.97
	H462V141.051z M462,233.549H300.943v48.971H462V233.549z M462,326.047H356.443v48.971H462V326.047z"/>
</svg>
